<svg id="Calque_1" data-name="Calque 1" xmlns="http://www.w3.org/2000/svg" viewBox="0 0 65.36 31"><title>TEST_LOGO_NOIR</title><path d="M.69,6.72V9H0V6.72ZM0,12.65V10.46H.69v2.19Zm.69,1.56a19.15,19.15,0,0,0,.09,2.14l-.68.1A17.11,17.11,0,0,1,0,14.7v-.49ZM.39,18l.68-.2A7.14,7.14,0,0,0,2,19.66l-.54.39A8.34,8.34,0,0,1,.39,18Zm2.24,3.21L3,20.63a4.7,4.7,0,0,0,1.9.83l-.15.68A5.75,5.75,0,0,1,2.63,21.22Zm9.24-14.5V9h-.68V6.72Zm-.68,5.93V10.46h.68v2.19Zm.68,1.56v.49a14.67,14.67,0,0,1-.1,1.75l-.68-.1a19.16,19.16,0,0,0,.1-2.14Zm-1.46,5.84-.53-.39a7.44,7.44,0,0,0,.92-1.85l.68.2A8.28,8.28,0,0,1,10.41,20.05ZM7.14,22.14,7,21.46a4.72,4.72,0,0,0,1.89-.83l.39.59A5.75,5.75,0,0,1,7.14,22.14Z" transform="translate(0 0)"/><path d="M16.36,31v-.68a7.57,7.57,0,0,0,2.09-.59l.34.59A8.88,8.88,0,0,1,16.36,31Zm4.13-4.23.63.14a5.67,5.67,0,0,1-1,2.29l-.53-.44A4.93,4.93,0,0,0,20.49,26.77ZM20,.49l.24.19a1,1,0,0,0-.15.54v.14h-.34V1.27A1,1,0,0,1,20,.49Zm.73,2A1,1,0,0,1,20,2l.24-.2a.86.86,0,0,0,.58.34ZM21.32.4a1.13,1.13,0,0,0-.68,0L20.49.11A1.64,1.64,0,0,1,21,0h.44Zm0,6.33V9.1h-.68V6.72Zm0,4v2.38h-.68V10.76Zm0,4v2.34h-.68V14.79Zm-.68,6.38V18.79h.68v2.38Zm.68,4h-.68V22.82h.68Zm.82-23.26a1,1,0,0,1-.68.58l-.1-.29a.92.92,0,0,0,.49-.44ZM21.75.63,22,.39a1.44,1.44,0,0,1,.34.88H22a1,1,0,0,0-.28-.64Z" transform="translate(0 0)"/><path d="M30,16.21l-.68.19A23.9,23.9,0,0,1,29,14h.68A18.44,18.44,0,0,0,30,16.21Zm.54-5.8a12.15,12.15,0,0,0-.73,2.1l-.65-.15A16.27,16.27,0,0,1,30,10.12Zm0,7.21a7,7,0,0,0,1.26,1.8l-.49.48A13.41,13.41,0,0,1,29.93,18ZM32.61,7.11l.34.58a6.41,6.41,0,0,0-1.61,1.46l-.53-.44A7.24,7.24,0,0,1,32.61,7.11Zm0,13.87.34-.59a6.63,6.63,0,0,0,2,.88l-.14.68a7.68,7.68,0,0,1-2.2-.95ZM36.45,6.62A13,13,0,0,0,34.31,7l-.19-.63a7.75,7.75,0,0,1,2.33-.49Zm0,14.84a13,13,0,0,0,2.14-.39l.25.63a7.82,7.82,0,0,1-2.39.44ZM40,7.69a6.17,6.17,0,0,0-2-.88l.2-.68a8.18,8.18,0,0,1,2.19,1Zm0,12.7a5.32,5.32,0,0,0,1.6-1.46l.54.44A8,8,0,0,1,40.35,21Zm2.43-10a8.2,8.2,0,0,0-1.25-1.73l.48-.48A15.73,15.73,0,0,1,43,10.12Zm0,7.21a10.65,10.65,0,0,0,.73-2.05l.68.15A18,18,0,0,1,43,17.94ZM43,11.85l.64-.19A14.19,14.19,0,0,1,44,14h-.68a10.93,10.93,0,0,0-.3-2.13Z" transform="translate(0 0)"/><path d="M51.39,16.21l-.68.19c-.06-.23-.18-1-.34-2.38h.68A17.81,17.81,0,0,0,51.39,16.21Zm.54-5.8a13.05,13.05,0,0,0-.73,2.1l-.68-.15a16.23,16.23,0,0,1,.82-2.24Zm0,7.21a7,7,0,0,0,1.26,1.8l-.48.48A13.47,13.47,0,0,1,51.34,18ZM54,7.11l.34.58a6.54,6.54,0,0,0-1.6,1.46l-.54-.44A7.24,7.24,0,0,1,54,7.11ZM54,21l.34-.59a6.63,6.63,0,0,0,2,.88l-.15.68A7.5,7.5,0,0,1,54,21ZM57.87,6.62A12.92,12.92,0,0,0,55.72,7l-.19-.63a7.82,7.82,0,0,1,2.34-.49Zm0,14.84A13,13,0,0,0,60,21.07l.24.63a7.76,7.76,0,0,1-2.38.44Zm3.5-13.77a6.17,6.17,0,0,0-2-.88l.2-.68a8,8,0,0,1,2.19,1Zm0,12.7A5.35,5.35,0,0,0,63,18.93l.53.44A7.75,7.75,0,0,1,61.76,21Zm2.43-10a7.79,7.79,0,0,0-1.26-1.75L63,8.16a15.81,15.81,0,0,1,1.42,1.94Zm0,7.21a9.81,9.81,0,0,0,.73-2.05l.68.15a18.81,18.81,0,0,1-.77,2.3Zm.59-5.75.63-.19A12.35,12.35,0,0,1,65.36,14h-.68a11.74,11.74,0,0,0-.29-2.13Z" transform="translate(0 0)"/></svg>